<svg width="103" height="103" viewBox="0 0 103 103" fill="none" xmlns="http://www.w3.org/2000/svg">
<mask id="mask0_247_6" style="mask-type:alpha" maskUnits="userSpaceOnUse" x="0" y="0" width="103" height="103">
<rect width="103" height="103" fill="#D9D9D9"/>
</mask>
<g mask="url(#mask0_247_6)">
<path d="M51.2895 85.7796L48.0375 82.842C41.0335 76.4431 35.2398 70.9659 30.6563 66.4103C26.0735 61.8539 22.456 57.8359 19.8037 54.356C17.1515 50.8762 15.2986 47.7276 14.245 44.9101C13.1914 42.0933 12.6646 39.2597 12.6646 36.4094C12.6646 30.9511 14.5189 26.3679 18.2276 22.6599C21.9356 18.9512 26.5188 17.0969 31.977 17.0969C35.7516 17.0969 39.2922 18.0625 42.5989 19.9937C45.9056 21.925 48.8025 24.7339 51.2895 28.4204C53.7766 24.7339 56.6734 21.925 59.9802 19.9937C63.2869 18.0625 66.8275 17.0969 70.602 17.0969C76.0603 17.0969 80.6435 18.9512 84.3515 22.6599C88.0602 26.3679 89.9145 30.9511 89.9145 36.4094C89.9145 39.2597 89.3877 42.0933 88.3341 44.9101C87.2805 47.7276 85.4276 50.8762 82.7754 54.356C80.1231 57.8359 76.5192 61.8539 71.9636 66.4103C67.408 70.9659 61.6006 76.4431 54.5416 82.842L51.2895 85.7796Z" fill="#C6005C"/>
</g>
</svg>
