<svg width="163" height="163" viewBox="0 0 163 163" fill="none" xmlns="http://www.w3.org/2000/svg">
<mask id="mask0_212_3" style="mask-type:alpha" maskUnits="userSpaceOnUse" x="0" y="0" width="163" height="163">
<rect width="162.661" height="162.661" fill="#D9D9D9"/>
</mask>
<g mask="url(#mask0_212_3)">
<path d="M88.1079 119.762L82.9722 115.123C71.9112 105.018 62.7615 96.3679 55.5231 89.1735C48.2858 81.978 42.5729 75.6325 38.3843 70.137C34.1958 64.6415 31.2696 59.6691 29.6057 55.2196C27.9418 50.7713 27.1099 46.2964 27.1099 41.795C27.1099 33.175 30.0383 25.9372 35.8953 20.0813C41.7511 14.2244 48.989 11.2959 57.6089 11.2959C63.5697 11.2959 69.1612 12.8209 74.3833 15.8708C79.6055 18.9207 84.1803 23.3566 88.1079 29.1785C92.0355 23.3566 96.6104 18.9207 101.832 15.8708C107.055 12.8209 112.646 11.2959 118.607 11.2959C127.227 11.2959 134.465 14.2244 140.321 20.0813C146.177 25.9372 149.106 33.175 149.106 41.795C149.106 46.2964 148.274 50.7713 146.61 55.2196C144.946 59.6691 142.02 64.6415 137.831 70.137C133.643 75.6325 127.951 81.978 120.757 89.1735C113.563 96.3679 104.392 105.018 93.2436 115.123L88.1079 119.762Z" fill="#FFD4E5"/>
</g>
</svg>
