<svg width="163" height="163" viewBox="0 0 163 163" fill="none" xmlns="http://www.w3.org/2000/svg">
<mask id="mask0_247_2" style="mask-type:alpha" maskUnits="userSpaceOnUse" x="0" y="0" width="163" height="163">
<rect width="162.661" height="162.661" fill="#D9D9D9"/>
</mask>
<g mask="url(#mask0_247_2)">
<path d="M80.998 135.466L75.8623 130.827C64.8014 120.722 55.6517 112.072 48.4132 104.878C41.1759 97.6821 35.463 91.3366 31.2745 85.8411C27.0859 80.3456 24.1597 75.3731 22.4958 70.9237C20.8319 66.4753 20 62.0005 20 57.499C20 48.8791 22.9285 41.6412 28.7854 35.7854C34.6412 29.9285 41.8791 27 50.499 27C56.4599 27 62.0514 28.525 67.2735 31.5749C72.4956 34.6248 77.0704 39.0607 80.998 44.8826C84.9256 39.0607 89.5005 34.6248 94.7226 31.5749C99.9447 28.525 105.536 27 111.497 27C120.117 27 127.355 29.9285 133.211 35.7854C139.068 41.6412 141.996 48.8791 141.996 57.499C141.996 62.0005 141.164 66.4753 139.5 70.9237C137.836 75.3731 134.91 80.3456 130.722 85.8411C126.533 91.3366 120.842 97.6821 113.647 104.878C106.453 112.072 97.2817 120.722 86.1337 130.827L80.998 135.466Z" fill="#A50036"/>
</g>
</svg>
