<svg width="114" height="114" viewBox="0 0 114 114" fill="none" xmlns="http://www.w3.org/2000/svg">
<mask id="mask0_212_11" style="mask-type:alpha" maskUnits="userSpaceOnUse" x="0" y="0" width="114" height="114">
<rect x="0.5" y="0.5" width="113" height="113" fill="#D9D9D9" stroke="#FFE4EF"/>
</mask>
<g mask="url(#mask0_212_11)">
<path d="M28.4883 38.4336L18.9434 62.2939L18.9365 62.3115H38.0635L38.0566 62.2939L28.5117 38.4336L28.5 38.4043L28.4883 38.4336ZM85.4883 38.4336L75.9434 62.2939L75.9365 62.3115H95.0635L95.0566 62.2939L85.5117 38.4336L85.5 38.4043L85.4883 38.4336ZM57 18.9873C55.1643 18.9873 53.5732 19.6027 52.2275 20.833L51.9619 21.0869C50.5623 22.4873 49.8623 24.167 49.8623 26.125C49.8623 27.9607 50.4777 29.5518 51.708 30.8975L51.9619 31.1631C53.3623 32.5627 55.042 33.2627 57 33.2627C58.8357 33.2627 60.4268 32.6473 61.7725 31.417L62.0381 31.1631C63.4377 29.7627 64.1377 28.083 64.1377 26.125C64.1377 24.2893 63.5223 22.6982 62.292 21.3525L62.0381 21.0869C60.6377 19.6873 58.958 18.9873 57 18.9873ZM54.6377 37.707L54.627 37.7051C52.3883 37.297 50.4116 36.2807 48.6963 34.6562C46.9813 33.0322 45.889 30.9797 45.4199 28.498L45.418 28.4873H29.0303L29.0371 28.5049L42.7363 62.7559C42.5646 65.72 41.2642 68.2703 38.832 70.4072L38.3311 70.8291C35.5745 73.0502 32.2974 74.1611 28.5 74.1611C24.9399 74.1611 21.8377 73.1846 19.1924 71.2324L18.6689 70.8291C15.914 68.6086 14.4458 65.9176 14.2627 62.7559L27.9629 28.5049L27.9697 28.4873H19.0127V23.7627H45.418L45.4199 23.752C45.9435 21.1061 47.2637 18.8628 49.3809 17.0225C51.4977 15.1824 54.0373 14.2627 57 14.2627C59.9627 14.2627 62.5023 15.1824 64.6191 17.0225C66.7363 18.8628 68.0565 21.1061 68.5801 23.752L68.582 23.7627H94.9873V28.4873H86.0303L86.0371 28.5049L99.7363 62.7559C99.5646 65.72 98.2642 68.2703 95.832 70.4072L95.3311 70.8291C92.5745 73.0502 89.2974 74.1611 85.5 74.1611C81.9399 74.1611 78.8377 73.1846 76.1924 71.2324L75.6689 70.8291C72.914 68.6086 71.4458 65.9176 71.2627 62.7559L84.9629 28.5049L84.9697 28.4873H68.582L68.5801 28.498C68.111 30.9797 67.0187 33.0322 65.3037 34.6562C63.5884 36.2807 61.6117 37.297 59.373 37.7051L59.3623 37.707V90.2627H99.7373V94.9873H14.2627V90.2627H54.6377V37.707Z" fill="#1C3144" stroke="#FFE4EF" stroke-width="0.025"/>
</g>
</svg>
