<svg width="98" height="98" viewBox="0 0 98 98" fill="none" xmlns="http://www.w3.org/2000/svg">
<mask id="mask0_16_167" style="mask-type:alpha" maskUnits="userSpaceOnUse" x="0" y="0" width="98" height="98">
<rect width="98" height="98" fill="#D9D9D9"/>
</mask>
<g mask="url(#mask0_16_167)">
<path d="M48.955 71.9289C50.1208 71.9289 51.1056 71.5267 51.9093 70.7223C52.713 69.9172 53.1149 68.9314 53.1149 67.765C53.1149 66.5992 52.7124 65.6144 51.9073 64.8107C51.1022 64.0076 50.1167 63.6061 48.9509 63.6061C47.7851 63.6061 46.8004 64.0086 45.9966 64.8137C45.1929 65.6188 44.791 66.6043 44.791 67.7701C44.791 68.9359 45.1936 69.9206 45.9987 70.7244C46.8038 71.5274 47.7892 71.9289 48.955 71.9289ZM46.063 57.3075H51.8113C51.8637 55.2979 52.158 53.6921 52.6943 52.4902C53.2313 51.2891 54.5335 49.6966 56.601 47.7127C58.397 45.9167 59.7724 44.2582 60.7273 42.7372C61.6828 41.2168 62.1605 39.4212 62.1605 37.3503C62.1605 33.8352 60.8977 31.0895 58.3722 29.1131C55.846 27.1375 52.858 26.1497 49.4083 26.1497C46 26.1497 43.1798 27.0592 40.9476 28.8784C38.7147 30.6975 37.1218 32.8399 36.1691 35.3055L41.4141 37.4095C41.9116 36.0538 42.7623 34.7332 43.9662 33.4476C45.1701 32.1627 46.9579 31.5203 49.3297 31.5203C51.7429 31.5203 53.5266 32.1811 54.6809 33.5027C55.8358 34.8251 56.4132 36.2791 56.4132 37.8648C56.4132 39.2524 56.0178 40.522 55.227 41.6735C54.4369 42.825 53.4293 43.9374 52.2043 45.0106C49.5236 47.4293 47.83 49.3587 47.1236 50.7987C46.4165 52.2381 46.063 54.4077 46.063 57.3075ZM49.0071 87.7917C43.6416 87.7917 38.5983 86.7736 33.8773 84.7373C29.1563 82.7011 25.0498 79.9377 21.5579 76.4472C18.0659 72.9566 15.3012 68.8518 13.2636 64.1328C11.2267 59.4139 10.2083 54.372 10.2083 49.0071C10.2083 43.6417 11.2264 38.5984 13.2626 33.8774C15.2988 29.1564 18.0622 25.0499 21.5528 21.558C25.0433 18.066 29.1481 15.3013 33.8671 13.2637C38.5861 11.2268 43.628 10.2083 48.9928 10.2083C54.3583 10.2083 59.4015 11.2264 64.1225 13.2627C68.8436 15.2989 72.95 18.0623 76.442 21.5529C79.9339 25.0434 82.6987 29.1482 84.7362 33.8672C86.7731 38.5861 87.7916 43.628 87.7916 48.9929C87.7916 54.3584 86.7735 59.4016 84.7373 64.1226C82.701 68.8436 79.9376 72.9501 76.4471 76.442C72.9565 79.934 68.8517 82.6987 64.1328 84.7363C59.4138 86.7732 54.3719 87.7917 49.0071 87.7917ZM48.9999 81.6667C58.1194 81.6667 65.8437 78.5021 72.1728 72.1729C78.502 65.8438 81.6666 58.1194 81.6666 49C81.6666 39.8806 78.502 32.1563 72.1728 25.8271C65.8437 19.4979 58.1194 16.3333 48.9999 16.3333C39.8805 16.3333 32.1562 19.4979 25.827 25.8271C19.4978 32.1563 16.3333 39.8806 16.3333 49C16.3333 58.1194 19.4978 65.8438 25.827 72.1729C32.1562 78.5021 39.8805 81.6667 48.9999 81.6667Z" fill="#494949"/>
</g>
</svg>
