<svg width="151" height="151" viewBox="0 0 151 151" fill="none" xmlns="http://www.w3.org/2000/svg">
<mask id="mask0_212_7" style="mask-type:alpha" maskUnits="userSpaceOnUse" x="0" y="0" width="151" height="151">
<rect width="151" height="151" fill="#D9D9D9"/>
</mask>
<g mask="url(#mask0_212_7)">
<path d="M43.9204 125.834V78.549C38.4676 77.3232 33.979 74.8312 30.4546 71.0729C26.9292 67.3137 25.1665 62.4979 25.1665 56.6257C25.1665 51.7129 26.6246 47.3287 29.5408 43.473C32.457 39.6183 36.4317 36.8919 41.4651 35.2938C43.7154 30.4219 46.9435 26.4739 51.1495 23.4497C55.3565 20.4245 60.3275 18.9119 66.0623 18.9119C69.248 18.9119 72.3598 19.4603 75.3976 20.5571C78.4344 21.654 81.4245 23.4933 84.3679 26.0749C85.2561 25.7037 86.1113 25.4395 86.9334 25.2822C87.7565 25.1249 88.6641 25.0462 89.6561 25.0462C95.5283 25.0462 100.424 27.2483 104.344 31.6525C108.265 36.0567 110.225 41.1949 110.225 47.0671C110.225 49.051 110.098 50.8096 109.844 52.3426C109.59 53.8747 109.168 55.3023 108.58 56.6257H114.459C117.598 56.6257 120.278 57.7168 122.5 59.8989C124.722 62.0811 125.833 64.7409 125.833 67.8783V100.788C125.833 103.926 124.722 106.606 122.5 108.828C120.278 111.051 117.598 112.162 114.459 112.162H104.539V125.834H43.9204ZM31.4582 56.6257C31.4582 60.9732 32.9928 64.6816 36.0621 67.7509C39.1314 70.8202 42.8398 72.3549 47.1873 72.3549C50.9466 72.3549 54.1066 71.2942 56.6673 69.1728C59.228 67.0515 61.7667 64.6276 64.2834 61.9012C67.2279 58.6663 70.2106 55.9299 73.2317 53.6922C76.2517 51.4534 80.1939 50.334 85.0585 50.334H103.933C104.417 45.0186 103.245 40.5237 100.418 36.8494C97.5909 33.1751 94.0036 31.3379 89.6561 31.3379C88.1639 31.3379 86.849 31.4769 85.7112 31.7547C84.5745 32.0337 83.5626 32.4148 82.6755 32.8982L79.1301 29.8987C77.7344 28.7935 75.9576 27.7344 73.7995 26.7214C71.6425 25.7095 69.0635 25.2035 66.0623 25.2035C62.1426 25.2035 58.5511 26.2359 55.2879 28.3006C52.0246 30.3664 49.498 33.2422 47.708 36.9281L45.9888 40.4372L42.1666 41.683C38.8991 42.7641 36.2975 44.6616 34.3618 47.3754C32.426 50.0902 31.4582 53.1737 31.4582 56.6257ZM104.539 105.871H114.459C115.912 105.871 117.122 105.387 118.09 104.419C119.058 103.451 119.542 102.241 119.542 100.788V67.8783C119.542 66.426 119.058 65.2364 118.09 64.3094C117.122 63.3814 115.912 62.9174 114.459 62.9174H104.539V105.871Z" fill="#63372C"/>
</g>
</svg>
