<svg width="244" height="169" viewBox="0 0 244 169" fill="none" xmlns="http://www.w3.org/2000/svg">
<mask id="mask0_90_28" style="mask-type:alpha" maskUnits="userSpaceOnUse" x="89" y="75" width="72" height="72">
<rect x="89.6053" y="93.139" width="56.0996" height="56.0996" transform="rotate(-18.7438 89.6053 93.139)" fill="#D9D9D9"/>
</mask>
<g mask="url(#mask0_90_28)">
<path d="M125.722 119.808C124.872 117.302 124.51 115.286 124.635 113.759C124.761 112.232 125.466 110.347 126.75 108.105C127.745 106.349 128.436 104.829 128.821 103.545C129.207 102.261 129.177 100.963 128.732 99.6517C128.142 97.9123 127.059 96.6675 125.483 95.9173C123.907 95.1673 122.081 95.1447 120.003 95.8496C118.108 96.4928 116.805 97.5014 116.093 98.8753C115.383 100.249 114.966 101.655 114.843 103.093L110.201 102.689C110.341 100.277 111.084 98.0542 112.428 96.0202C113.773 93.9866 115.815 92.5052 118.553 91.5759C122.129 90.3626 125.223 90.4368 127.835 91.7986C130.448 93.1604 132.224 95.2262 133.164 97.9961C133.751 99.7271 133.894 101.382 133.593 102.961C133.292 104.539 132.621 106.304 131.581 108.255C130.257 110.669 129.539 112.463 129.426 113.635C129.313 114.809 129.582 116.356 130.234 118.277L125.722 119.808ZM132.189 131.76C131.283 132.067 130.393 132.004 129.517 131.572C128.641 131.14 128.049 130.471 127.742 129.566C127.435 128.661 127.497 127.77 127.929 126.894C128.361 126.018 129.03 125.426 129.935 125.119C130.841 124.812 131.731 124.874 132.608 125.306C133.484 125.738 134.075 126.407 134.382 127.313C134.69 128.218 134.627 129.109 134.195 129.985C133.763 130.861 133.094 131.452 132.189 131.76Z" fill="#494949"/>
</g>
<path d="M28.6025 81.0248L27.1704 85.5403C26.6923 85.4521 26.1995 85.4676 25.6922 85.5865C25.1886 85.6968 24.7114 85.9467 24.2606 86.3361C23.8097 86.7256 23.4239 87.2843 23.103 88.0122C22.6714 88.9913 22.5166 89.9171 22.6386 90.7896C22.7644 91.6535 23.1605 92.2444 23.8267 92.5625C24.3919 92.8519 24.9484 92.8679 25.496 92.6106C26.0475 92.3446 26.6614 91.7613 27.3376 90.8605L29.5521 87.807C30.784 86.1149 32.0355 85.0233 33.3066 84.5321C34.5816 84.0322 35.9216 84.1235 37.3267 84.8061C38.5543 85.4222 39.4791 86.3267 40.1009 87.5196C40.7181 88.6996 41.0072 90.0607 40.9685 91.6029C40.9297 93.145 40.5436 94.748 39.8102 96.4117C38.7331 98.8553 37.3649 100.575 35.7058 101.571C34.0382 102.563 32.2411 102.758 30.3147 102.156L31.9041 97.3539C32.879 97.5816 33.7405 97.4685 34.4885 97.0147C35.2365 96.5608 35.8493 95.7923 36.3268 94.7092C36.8195 93.5914 36.9898 92.5835 36.8376 91.6856C36.6893 90.779 36.2839 90.1624 35.6214 89.8356C35.0609 89.5591 34.5007 89.5518 33.9407 89.8136C33.3845 90.0667 32.8063 90.6043 32.2061 91.4265L30.0043 94.4863C28.7695 96.2086 27.4868 97.3007 26.1562 97.7625C24.8171 98.2202 23.4361 98.0928 22.0132 97.3804C20.8034 96.7942 19.9058 95.9453 19.3205 94.8337C18.7306 93.7093 18.4609 92.4211 18.5116 90.9692C18.5576 89.5045 18.932 87.9749 19.6348 86.3805C20.6662 84.0409 21.9662 82.4404 23.5349 81.5791C25.1074 80.7091 26.7966 80.5243 28.6025 81.0248Z" fill="#494949"/>
<path d="M34.8774 60.7069L37.9954 63.176L30.7502 73.4143L27.6322 70.9452L34.8774 60.7069ZM25.3229 65.1724L28.2932 60.975L44.3511 73.691C44.893 74.1202 45.3689 74.3643 45.7788 74.4236C46.1867 74.4692 46.5439 74.3901 46.8502 74.1864C47.1565 73.9827 47.4328 73.7069 47.6789 73.3591C47.8649 73.0963 48.0159 72.8419 48.132 72.5961C48.2535 72.3425 48.3404 72.146 48.3928 72.0066L52.0447 73.7949C51.9604 74.0778 51.815 74.4633 51.6087 74.9512C51.4079 75.4315 51.1043 75.9751 50.6979 76.582C49.9837 77.6568 49.1614 78.4832 48.2311 79.0612C47.2933 79.6334 46.293 79.8846 45.2303 79.815C44.1729 79.7376 43.1125 79.2717 42.0489 78.4175L25.3229 65.1724Z" fill="#494949"/>
<path d="M57.3172 67.466L43.3593 50.6967L47.0077 47.2986L49.334 50.0934L49.5003 49.9385C48.9856 48.6994 48.8636 47.4887 49.1342 46.3063C49.4057 45.1102 49.9988 44.0862 50.9135 43.2342C51.1213 43.0406 51.3626 42.8353 51.6371 42.6183C51.9126 42.3876 52.1521 42.2098 52.3556 42.0848L55.3816 45.7204C55.1738 45.8106 54.8784 45.9952 54.4956 46.2743C54.1137 46.5396 53.7633 46.8207 53.4446 47.1176C52.7585 47.7565 52.2721 48.4875 51.9851 49.3103C51.6991 50.1194 51.6273 50.9421 51.7698 51.7785C51.9124 52.6148 52.2805 53.3896 52.8742 54.1029L61.0799 63.9614L57.3172 67.466Z" fill="#494949"/>
<path d="M74.0921 53.2652L63.7874 34.0339L68.1974 31.3896L78.5021 50.621L74.0921 53.2652ZM64.5421 29.975C63.8436 30.3938 63.1151 30.5162 62.3567 30.3424C61.5937 30.1602 61.0311 29.731 60.6688 29.0549C60.3021 28.3705 60.243 27.6394 60.4916 26.8617C60.7358 26.0757 61.2071 25.4732 61.9055 25.0544C62.6121 24.6308 63.3428 24.5125 64.0976 24.6995C64.8561 24.8734 65.4187 25.3025 65.7855 25.987C66.1477 26.6631 66.2068 27.3942 65.9627 28.1802C65.7222 28.953 65.2487 29.5513 64.5421 29.975Z" fill="#494949"/>
<path d="M86.0329 54.7739L77.3548 26.0565L82.1452 24.4366L83.1888 27.8903L83.4714 27.7948C83.5692 27.2022 83.7606 26.543 84.0455 25.8172C84.3277 25.0824 84.7974 24.379 85.4545 23.7072C86.109 23.0263 87.0417 22.4811 88.2528 22.0716C89.8495 21.5316 91.414 21.4572 92.9461 21.8483C94.4844 22.2273 95.8727 23.0916 97.1111 24.4413C98.3557 25.7789 99.3287 27.608 100.03 29.9286C100.723 32.222 100.94 34.2968 100.68 36.1531C100.42 38.0093 99.7763 39.5759 98.7483 40.8527C97.7202 42.1295 96.3944 43.0424 94.7707 43.5915C93.5865 43.9919 92.544 44.1246 91.643 43.9897C90.742 43.8548 89.9689 43.5867 89.3236 43.1854C88.6846 42.7721 88.1583 42.3556 87.7447 41.9359L87.5429 42.0042L90.904 53.1267L86.0329 54.7739ZM85.2874 34.8839C85.6955 36.2345 86.2414 37.3538 86.925 38.2416C87.6175 39.1265 88.4089 39.7331 89.2991 40.0615C90.1956 40.3778 91.1596 40.3615 92.1913 40.0127C93.2677 39.6487 94.0816 39.0537 94.6329 38.2279C95.1815 37.3929 95.4863 36.4056 95.5473 35.266C95.6145 34.1143 95.4509 32.8857 95.0565 31.5804C94.6647 30.2841 94.1329 29.1951 93.4611 28.3133C92.7892 27.4314 92.0037 26.8278 91.1045 26.5025C90.2053 26.1771 89.213 26.1979 88.1275 26.565C87.0869 26.9169 86.2869 27.4921 85.7273 28.2908C85.1678 29.0895 84.8503 30.0511 84.7749 31.1756C84.7084 32.2971 84.8792 33.5332 85.2874 34.8839Z" fill="#494949"/>
<path d="M135.378 10.536L134.335 21.1954L130.438 20.7687L131.48 10.1094L135.378 10.536Z" fill="#494949"/>
<path d="M148.745 29.8325L145.047 42.0701L140.176 40.4229L146.487 19.5375L151.143 21.1119L150.071 24.6608L150.313 24.7427C151.142 23.7341 152.181 23.0613 153.429 22.7242C154.687 22.3902 156.087 22.4841 157.63 23.0058C159.057 23.4882 160.206 24.2165 161.078 25.1909C161.96 26.1682 162.515 27.3402 162.745 28.7068C162.983 30.0763 162.846 31.5936 162.333 33.2585L158.315 46.5566L153.444 44.9094L157.232 32.3727C157.654 30.9767 157.625 29.7631 157.146 28.7318C156.676 27.7035 155.812 26.977 154.556 26.5523C153.704 26.2641 152.889 26.1982 152.11 26.3544C151.343 26.5046 150.664 26.8696 150.073 27.4492C149.492 28.0319 149.049 28.8263 148.745 29.8325Z" fill="#494949"/>
<path d="M198.499 57.3902L194.742 54.5884C194.948 54.1341 195.063 53.6339 195.087 53.0878C195.118 52.5481 195.014 51.9928 194.776 51.422C194.538 50.8511 194.127 50.2946 193.545 49.7524C192.762 49.0231 191.956 48.5883 191.125 48.4479C190.302 48.3141 189.657 48.5342 189.191 49.1084C188.779 49.5896 188.618 50.1444 188.71 50.7728C188.809 51.4076 189.182 52.2009 189.829 53.1525L192.044 56.3004C193.27 58.0495 193.941 59.6374 194.058 61.0639C194.181 62.4969 193.747 63.8171 192.754 65.0245C191.869 66.0734 190.799 66.7307 189.544 66.9964C188.303 67.2614 186.981 67.1418 185.58 66.6379C184.179 66.1339 182.813 65.2623 181.483 64.0231C179.528 62.203 178.313 60.3084 177.836 58.3395C177.365 56.3632 177.657 54.4971 178.713 52.7411L182.691 55.7874C182.227 56.6993 182.105 57.5998 182.325 58.489C182.544 59.3781 183.087 60.2261 183.953 61.0329C184.847 61.8655 185.725 62.3406 186.586 62.4583C187.455 62.5825 188.125 62.3607 188.598 61.793C188.998 61.3126 189.151 60.7513 189.058 60.1092C188.972 59.4735 188.632 58.7299 188.036 57.8784L185.813 54.7414C184.56 52.9802 183.897 51.3608 183.823 49.8833C183.754 48.3986 184.233 47.048 185.257 45.8317C186.111 44.7918 187.123 44.145 188.293 43.8915C189.477 43.6372 190.726 43.7543 192.042 44.2431C193.37 44.731 194.672 45.5687 195.947 46.7563C197.818 48.4989 198.942 50.289 199.319 52.1264C199.704 53.9703 199.43 55.7249 198.499 57.3902Z" fill="#494949"/>
<path d="M192.689 76.4434L209.794 62.8985L212.764 67.0958L195.66 80.6408L192.689 76.4434ZM213.715 63.0864C213.244 62.4216 213.051 61.682 213.135 60.8677C213.227 60.0474 213.573 59.3992 214.174 58.923C214.783 58.441 215.469 58.272 216.231 58.4162C217.001 58.5545 217.621 58.956 218.091 59.6208C218.567 60.2933 218.757 61.0358 218.66 61.8483C218.576 62.6626 218.229 63.3108 217.621 63.7929C217.019 64.2691 216.334 64.4381 215.564 64.2998C214.807 64.1633 214.191 63.7589 213.715 63.0864Z" fill="#494949"/>
<path d="M191.758 89.414L218.662 76.1424L220.702 80.7696L217.466 82.3657L217.587 82.6387C218.169 82.6467 218.826 82.7397 219.555 82.9177C220.294 83.0915 221.02 83.4611 221.735 84.0265C222.458 84.5876 223.077 85.4531 223.593 86.6229C224.272 88.1653 224.499 89.7467 224.272 91.367C224.058 92.9918 223.36 94.5389 222.178 96.0083C221.007 97.4821 219.335 98.7553 217.161 99.8277C215.013 100.888 213.028 101.429 211.208 101.451C209.388 101.473 207.81 101.06 206.474 100.21C205.138 99.3606 204.124 98.1517 203.432 96.5833C202.928 95.4395 202.697 94.3985 202.738 93.4603C202.78 92.5221 202.962 91.6935 203.286 90.9745C203.623 90.26 203.973 89.6598 204.338 89.1739L204.252 88.9789L193.832 94.1191L191.758 89.414ZM210.913 85.5826C209.647 86.2068 208.619 86.9355 207.829 87.7686C207.042 88.6104 206.534 89.5099 206.304 90.467C206.087 91.4286 206.198 92.4077 206.637 93.4042C207.096 94.444 207.751 95.1808 208.604 95.6146C209.466 96.0441 210.45 96.202 211.558 96.088C212.678 95.9786 213.85 95.6223 215.073 95.019C216.287 94.4199 217.287 93.7103 218.073 92.89C218.859 92.0697 219.365 91.1767 219.591 90.2109C219.817 89.2451 219.698 88.2379 219.236 87.1895C218.793 86.1843 218.158 85.4585 217.33 85.0122C216.503 84.5659 215.542 84.3911 214.447 84.488C213.356 84.5936 212.178 84.9584 210.913 85.5826Z" fill="#494949"/>
<path d="M71.9933 152.286L69.6264 151.227C66.6512 149.937 64.6486 147.8 63.6185 144.814C62.5884 141.828 62.7288 138.919 64.0399 136.088L71.9933 119.038V152.286ZM96.629 160.617C93.5386 160.617 90.8931 159.511 88.6924 157.299C86.4917 155.088 85.3913 152.438 85.3913 149.347V122.799L97.8286 156.965C98.1095 157.693 98.3797 158.343 98.6391 158.915C98.8985 159.488 99.2623 160.055 99.7305 160.617H96.629ZM121.135 155.16C118.737 156.046 116.41 155.978 114.155 154.955C111.9 153.932 110.33 152.221 109.444 149.822L86.6345 87.1837C85.7477 84.7845 85.8338 82.463 86.893 80.2192C87.9521 77.9754 89.6813 76.4106 92.0805 75.5247L128.094 62.3416C130.493 61.4557 132.815 61.5423 135.059 62.6014C137.303 63.6606 138.867 65.3893 139.753 67.7876L162.597 130.427C163.482 132.826 163.414 135.147 162.39 137.391C161.367 139.634 159.657 141.2 157.259 142.086L121.135 155.16ZM119.256 149.704L155.194 136.629C156.13 136.269 156.797 135.674 157.193 134.847C157.589 134.018 157.607 133.135 157.247 132.199L134.588 69.8525C134.228 68.916 133.633 68.2493 132.806 67.8522C131.977 67.4561 131.094 67.4383 130.158 67.7988L94.2522 80.8738C93.3157 81.2334 92.6494 81.8276 92.2533 82.6564C91.8572 83.4851 91.8389 84.3678 92.1985 85.3042L114.825 147.651C115.185 148.587 115.779 149.253 116.608 149.649C117.437 150.046 118.319 150.064 119.256 149.704Z" fill="#494949"/>
</svg>
