<svg width="823" height="260" viewBox="0 0 823 260" fill="none" xmlns="http://www.w3.org/2000/svg">
<path d="M306.507 58.3513L352.772 18.4793C354.446 17.0371 356.886 17.2938 358.223 19.0527L411.908 89.6914C413.244 91.4502 412.971 94.0452 411.298 95.4873L365.032 135.359C363.359 136.801 360.919 136.545 359.582 134.786L305.897 64.1473C304.56 62.3885 304.833 59.7935 306.507 58.3513Z" fill="#06D6A0" stroke="white" stroke-width="8"/>
<rect x="375.77" y="4.02458" width="69.0763" height="96.7233" rx="4" transform="rotate(0.0181593 375.77 4.02458)" fill="#EF476F" stroke="white" stroke-width="8"/>
<rect x="1.43997" y="5.62919" width="69.0763" height="96.7233" rx="4" transform="matrix(0.845926 0.533301 -0.485933 0.873996 460.771 11.721)" fill="#FFD166" stroke="white" stroke-width="8"/>
<path d="M314.979 215.828L294.855 195.416L295.863 195.668L295.935 215H292.443V188.18H292.623L312.531 208.664L311.703 208.484L311.631 188.972H315.087V215.828H314.979ZM323.004 222.164L332.832 200.096H335.928L326.316 222.164H323.004ZM326.676 215.108L319.512 200.096H323.292L329.304 213.416L326.676 215.108ZM340.973 193.544H344.321V200.168H348.425V202.796H344.321V215H340.973V202.796H338.237V200.168H340.973V193.544ZM366.849 200.096L367.137 203.732L366.993 203.156C367.473 202.052 368.253 201.176 369.333 200.528C370.413 199.856 371.661 199.52 373.077 199.52C374.493 199.52 375.645 199.94 376.533 200.78C377.445 201.596 377.913 202.664 377.937 203.984V215H374.553V205.172C374.529 204.356 374.289 203.696 373.833 203.192C373.401 202.664 372.717 202.4 371.781 202.4C370.917 202.4 370.137 202.64 369.441 203.12C368.745 203.6 368.193 204.26 367.785 205.1C367.401 205.94 367.209 206.912 367.209 208.016V215H363.861V200.096H366.849ZM390.672 215.36C388.968 215.36 387.504 215.024 386.28 214.352C385.056 213.656 384.108 212.72 383.436 211.544C382.788 210.344 382.464 208.976 382.464 207.44C382.464 205.976 382.836 204.644 383.58 203.444C384.324 202.244 385.32 201.284 386.568 200.564C387.816 199.844 389.208 199.484 390.744 199.484C392.712 199.484 394.344 200.06 395.64 201.212C396.936 202.364 397.812 203.948 398.268 205.964L385.992 210.284L385.2 208.304L395.28 204.632L394.56 205.1C394.272 204.308 393.792 203.624 393.12 203.048C392.448 202.448 391.572 202.148 390.492 202.148C389.58 202.148 388.764 202.376 388.044 202.832C387.324 203.264 386.76 203.864 386.352 204.632C385.944 205.4 385.74 206.276 385.74 207.26C385.74 208.292 385.956 209.204 386.388 209.996C386.82 210.764 387.408 211.376 388.152 211.832C388.92 212.264 389.784 212.48 390.744 212.48C391.392 212.48 392.016 212.36 392.616 212.12C393.24 211.88 393.816 211.568 394.344 211.184L395.892 213.668C395.148 214.172 394.308 214.58 393.372 214.892C392.46 215.204 391.56 215.36 390.672 215.36ZM413.854 187.136H417.202V215H413.854V187.136ZM421.698 207.404C421.698 205.916 422.046 204.572 422.742 203.372C423.462 202.172 424.446 201.224 425.694 200.528C426.942 199.832 428.358 199.484 429.942 199.484C431.574 199.484 433.002 199.832 434.226 200.528C435.45 201.224 436.398 202.172 437.07 203.372C437.742 204.572 438.078 205.916 438.078 207.404C438.078 208.892 437.742 210.248 437.07 211.472C436.398 212.672 435.438 213.62 434.19 214.316C432.966 215.012 431.538 215.36 429.906 215.36C428.322 215.36 426.906 215.036 425.658 214.388C424.434 213.716 423.462 212.792 422.742 211.616C422.046 210.416 421.698 209.012 421.698 207.404ZM425.046 207.44C425.046 208.4 425.262 209.276 425.694 210.068C426.126 210.836 426.702 211.448 427.422 211.904C428.166 212.36 428.982 212.588 429.87 212.588C430.806 212.588 431.634 212.36 432.354 211.904C433.098 211.448 433.674 210.836 434.082 210.068C434.49 209.276 434.694 208.4 434.694 207.44C434.694 206.48 434.49 205.616 434.082 204.848C433.674 204.056 433.098 203.432 432.354 202.976C431.634 202.496 430.806 202.256 429.87 202.256C428.958 202.256 428.13 202.496 427.386 202.976C426.666 203.456 426.09 204.092 425.658 204.884C425.25 205.652 425.046 206.504 425.046 207.44ZM451.395 215.36C450.267 215.36 449.175 215.096 448.119 214.568C447.087 214.04 446.283 213.332 445.707 212.444L445.923 211.4V222.164H442.611V199.88H445.491L445.959 203.696L445.599 202.652C446.319 201.74 447.231 200.984 448.335 200.384C449.439 199.784 450.675 199.484 452.043 199.484C453.435 199.484 454.683 199.82 455.787 200.492C456.915 201.164 457.803 202.1 458.451 203.3C459.099 204.5 459.423 205.904 459.423 207.512C459.423 209.12 459.075 210.512 458.379 211.688C457.683 212.864 456.723 213.776 455.499 214.424C454.299 215.048 452.931 215.36 451.395 215.36ZM450.747 212.696C451.707 212.696 452.583 212.48 453.375 212.048C454.191 211.592 454.839 210.98 455.319 210.212C455.799 209.42 456.039 208.532 456.039 207.548C456.039 206.54 455.811 205.652 455.355 204.884C454.899 204.092 454.287 203.468 453.519 203.012C452.775 202.556 451.935 202.328 450.999 202.328C450.135 202.328 449.355 202.496 448.659 202.832C447.963 203.168 447.387 203.636 446.931 204.236C446.475 204.812 446.151 205.484 445.959 206.252V208.736C446.079 209.504 446.367 210.188 446.823 210.788C447.279 211.388 447.843 211.856 448.515 212.192C449.211 212.528 449.955 212.696 450.747 212.696ZM472.735 215.36C471.607 215.36 470.515 215.096 469.459 214.568C468.427 214.04 467.623 213.332 467.047 212.444L467.263 211.4V222.164H463.951V199.88H466.831L467.299 203.696L466.939 202.652C467.659 201.74 468.571 200.984 469.675 200.384C470.779 199.784 472.015 199.484 473.383 199.484C474.775 199.484 476.023 199.82 477.127 200.492C478.255 201.164 479.143 202.1 479.791 203.3C480.439 204.5 480.763 205.904 480.763 207.512C480.763 209.12 480.415 210.512 479.719 211.688C479.023 212.864 478.063 213.776 476.839 214.424C475.639 215.048 474.271 215.36 472.735 215.36ZM472.087 212.696C473.047 212.696 473.923 212.48 474.715 212.048C475.531 211.592 476.179 210.98 476.659 210.212C477.139 209.42 477.379 208.532 477.379 207.548C477.379 206.54 477.151 205.652 476.695 204.884C476.239 204.092 475.627 203.468 474.859 203.012C474.115 202.556 473.275 202.328 472.339 202.328C471.475 202.328 470.695 202.496 469.999 202.832C469.303 203.168 468.727 203.636 468.271 204.236C467.815 204.812 467.491 205.484 467.299 206.252V208.736C467.419 209.504 467.707 210.188 468.163 210.788C468.619 211.388 469.183 211.856 469.855 212.192C470.551 212.528 471.295 212.696 472.087 212.696ZM490.007 215.576C488.663 215.576 487.547 215.168 486.659 214.352C485.795 213.512 485.339 212.432 485.291 211.112V200.096H488.639V209.924C488.687 210.74 488.915 211.4 489.323 211.904C489.755 212.408 490.427 212.672 491.339 212.696C492.179 212.696 492.923 212.456 493.571 211.976C494.243 211.472 494.783 210.8 495.191 209.96C495.599 209.096 495.803 208.124 495.803 207.044V200.096H499.151V215H496.091L495.803 211.328L495.983 211.976C495.695 212.672 495.251 213.296 494.651 213.848C494.075 214.376 493.391 214.796 492.599 215.108C491.807 215.42 490.943 215.576 490.007 215.576ZM514.642 203.3C514.642 202.772 514.834 202.328 515.218 201.968C515.626 201.584 516.058 201.392 516.514 201.392C516.97 201.392 517.39 201.572 517.774 201.932C518.182 202.292 518.386 202.748 518.386 203.3C518.386 203.876 518.182 204.344 517.774 204.704C517.39 205.04 516.97 205.208 516.514 205.208C516.058 205.208 515.626 205.04 515.218 204.704C514.834 204.344 514.642 203.876 514.642 203.3ZM514.642 213.092C514.642 212.564 514.834 212.12 515.218 211.76C515.626 211.376 516.058 211.184 516.514 211.184C516.97 211.184 517.39 211.376 517.774 211.76C518.182 212.12 518.386 212.564 518.386 213.092C518.386 213.668 518.182 214.136 517.774 214.496C517.39 214.832 516.97 215 516.514 215C516.058 215 515.626 214.832 515.218 214.496C514.834 214.136 514.642 213.668 514.642 213.092ZM523.453 204.38C523.453 201.956 523.741 199.688 524.317 197.576C524.893 195.464 525.637 193.58 526.549 191.924C527.485 190.268 528.457 188.9 529.465 187.82L532.093 189.296C531.157 190.376 530.293 191.66 529.501 193.148C528.733 194.636 528.109 196.328 527.629 198.224C527.173 200.12 526.945 202.184 526.945 204.416C526.945 206.648 527.173 208.712 527.629 210.608C528.109 212.48 528.733 214.148 529.501 215.612C530.293 217.1 531.157 218.384 532.093 219.464L529.465 220.976C528.457 219.896 527.485 218.516 526.549 216.836C525.637 215.18 524.893 213.308 524.317 211.22C523.741 209.108 523.453 206.828 523.453 204.38ZM4.02134 251V224.144H4.05734L17.7013 243.512L16.2253 243.224L29.8333 224.144H29.9053V251H26.4493V232.064L26.6653 233.828L16.8373 247.724H16.7653L6.79334 233.828L7.40534 232.208V251H4.02134ZM41.2726 251.576C39.9286 251.576 38.8126 251.168 37.9246 250.352C37.0606 249.512 36.6046 248.432 36.5566 247.112V236.096H39.9046V245.924C39.9526 246.74 40.1806 247.4 40.5886 247.904C41.0206 248.408 41.6926 248.672 42.6046 248.696C43.4446 248.696 44.1886 248.456 44.8366 247.976C45.5086 247.472 46.0486 246.8 46.4566 245.96C46.8646 245.096 47.0686 244.124 47.0686 243.044V236.096H50.4166V251H47.3566L47.0686 247.328L47.2486 247.976C46.9606 248.672 46.5166 249.296 45.9166 249.848C45.3406 250.376 44.6566 250.796 43.8646 251.108C43.0726 251.42 42.2086 251.576 41.2726 251.576ZM57.649 229.544H60.997V236.168H65.101V238.796H60.997V251H57.649V238.796H54.913V236.168H57.649V229.544ZM70.5865 229.544H73.9345V236.168H78.0385V238.796H73.9345V251H70.5865V238.796H67.8505V236.168H70.5865V229.544ZM88.276 251.36C86.884 251.36 85.612 251.06 84.46 250.46C83.332 249.86 82.432 248.984 81.76 247.832C81.112 246.656 80.788 245.228 80.788 243.548C80.788 241.892 81.136 240.464 81.832 239.264C82.528 238.04 83.452 237.104 84.604 236.456C85.78 235.808 87.064 235.484 88.456 235.484C89.848 235.484 91.024 235.808 91.984 236.456C92.944 237.08 93.676 237.824 94.18 238.688L93.964 239.264L94.288 236.096H97.384V251H94.036V247.112L94.396 247.976C94.3 248.216 94.084 248.528 93.748 248.912C93.436 249.272 93.004 249.644 92.452 250.028C91.924 250.412 91.312 250.736 90.616 251C89.92 251.24 89.14 251.36 88.276 251.36ZM89.176 248.588C90.016 248.588 90.772 248.432 91.444 248.12C92.116 247.808 92.668 247.376 93.1 246.824C93.556 246.248 93.868 245.564 94.036 244.772V241.856C93.844 241.136 93.508 240.512 93.028 239.984C92.548 239.432 91.972 239.012 91.3 238.724C90.628 238.412 89.884 238.256 89.068 238.256C88.18 238.256 87.364 238.472 86.62 238.904C85.876 239.336 85.276 239.936 84.82 240.704C84.388 241.472 84.172 242.372 84.172 243.404C84.172 244.364 84.4 245.24 84.856 246.032C85.312 246.824 85.924 247.448 86.692 247.904C87.46 248.36 88.288 248.588 89.176 248.588ZM121.48 251.36C119.776 251.36 118.312 251.024 117.088 250.352C115.864 249.656 114.916 248.72 114.244 247.544C113.596 246.344 113.272 244.976 113.272 243.44C113.272 241.976 113.644 240.644 114.388 239.444C115.132 238.244 116.128 237.284 117.376 236.564C118.624 235.844 120.016 235.484 121.552 235.484C123.52 235.484 125.152 236.06 126.448 237.212C127.744 238.364 128.62 239.948 129.076 241.964L116.8 246.284L116.008 244.304L126.088 240.632L125.368 241.1C125.08 240.308 124.6 239.624 123.928 239.048C123.256 238.448 122.38 238.148 121.3 238.148C120.388 238.148 119.572 238.376 118.852 238.832C118.132 239.264 117.568 239.864 117.16 240.632C116.752 241.4 116.548 242.276 116.548 243.26C116.548 244.292 116.764 245.204 117.196 245.996C117.628 246.764 118.216 247.376 118.96 247.832C119.728 248.264 120.592 248.48 121.552 248.48C122.2 248.48 122.824 248.36 123.424 248.12C124.048 247.88 124.624 247.568 125.152 247.184L126.7 249.668C125.956 250.172 125.116 250.58 124.18 250.892C123.268 251.204 122.368 251.36 121.48 251.36ZM133.271 236.096H136.619V251H133.271V236.096ZM133.019 230.696C133.019 230.168 133.223 229.724 133.631 229.364C134.063 229.004 134.531 228.824 135.035 228.824C135.539 228.824 135.983 229.004 136.367 229.364C136.775 229.724 136.979 230.168 136.979 230.696C136.979 231.248 136.775 231.704 136.367 232.064C135.983 232.4 135.539 232.568 135.035 232.568C134.531 232.568 134.063 232.388 133.631 232.028C133.223 231.668 133.019 231.224 133.019 230.696ZM153.803 251V223.136H157.079V239.552L157.007 238.94C157.511 237.956 158.279 237.14 159.311 236.492C160.367 235.844 161.603 235.52 163.019 235.52C164.435 235.52 165.587 235.94 166.475 236.78C167.387 237.596 167.855 238.664 167.879 239.984V251H164.495V241.172C164.471 240.356 164.231 239.696 163.775 239.192C163.343 238.664 162.659 238.4 161.723 238.4C160.859 238.4 160.079 238.652 159.383 239.156C158.687 239.636 158.135 240.296 157.727 241.136C157.343 241.976 157.151 242.936 157.151 244.016V251H153.803ZM179.893 251.36C178.501 251.36 177.229 251.06 176.077 250.46C174.949 249.86 174.049 248.984 173.377 247.832C172.729 246.656 172.405 245.228 172.405 243.548C172.405 241.892 172.753 240.464 173.449 239.264C174.145 238.04 175.069 237.104 176.221 236.456C177.397 235.808 178.681 235.484 180.073 235.484C181.465 235.484 182.641 235.808 183.601 236.456C184.561 237.08 185.293 237.824 185.797 238.688L185.581 239.264L185.905 236.096H189.001V251H185.653V247.112L186.013 247.976C185.917 248.216 185.701 248.528 185.365 248.912C185.053 249.272 184.621 249.644 184.069 250.028C183.541 250.412 182.929 250.736 182.233 251C181.537 251.24 180.757 251.36 179.893 251.36ZM180.793 248.588C181.633 248.588 182.389 248.432 183.061 248.12C183.733 247.808 184.285 247.376 184.717 246.824C185.173 246.248 185.485 245.564 185.653 244.772V241.856C185.461 241.136 185.125 240.512 184.645 239.984C184.165 239.432 183.589 239.012 182.917 238.724C182.245 238.412 181.501 238.256 180.685 238.256C179.797 238.256 178.981 238.472 178.237 238.904C177.493 239.336 176.893 239.936 176.437 240.704C176.005 241.472 175.789 242.372 175.789 243.404C175.789 244.364 176.017 245.24 176.473 246.032C176.929 246.824 177.541 247.448 178.309 247.904C179.077 248.36 179.905 248.588 180.793 248.588ZM176.509 231.56C176.509 231.032 176.701 230.588 177.085 230.228C177.469 229.844 177.901 229.652 178.381 229.652C178.837 229.652 179.257 229.844 179.641 230.228C180.049 230.588 180.253 231.044 180.253 231.596C180.253 232.148 180.049 232.604 179.641 232.964C179.257 233.3 178.837 233.468 178.381 233.468C177.901 233.468 177.469 233.288 177.085 232.928C176.701 232.568 176.509 232.112 176.509 231.56ZM183.241 231.56C183.241 231.032 183.433 230.588 183.817 230.228C184.225 229.844 184.669 229.652 185.149 229.652C185.581 229.652 185.989 229.844 186.373 230.228C186.781 230.588 186.985 231.044 186.985 231.596C186.985 232.148 186.781 232.604 186.373 232.964C185.989 233.3 185.581 233.468 185.149 233.468C184.669 233.468 184.225 233.288 183.817 232.928C183.433 232.568 183.241 232.112 183.241 231.56ZM196.235 229.544H199.583V236.168H203.687V238.796H199.583V251H196.235V238.796H193.499V236.168H196.235V229.544ZM213.924 251.36C212.532 251.36 211.26 251.06 210.108 250.46C208.98 249.86 208.08 248.984 207.408 247.832C206.76 246.656 206.436 245.228 206.436 243.548C206.436 241.892 206.784 240.464 207.48 239.264C208.176 238.04 209.1 237.104 210.252 236.456C211.428 235.808 212.712 235.484 214.104 235.484C215.496 235.484 216.672 235.808 217.632 236.456C218.592 237.08 219.324 237.824 219.828 238.688L219.612 239.264L219.936 236.096H223.032V251H219.684V247.112L220.044 247.976C219.948 248.216 219.732 248.528 219.396 248.912C219.084 249.272 218.652 249.644 218.1 250.028C217.572 250.412 216.96 250.736 216.264 251C215.568 251.24 214.788 251.36 213.924 251.36ZM214.824 248.588C215.664 248.588 216.42 248.432 217.092 248.12C217.764 247.808 218.316 247.376 218.748 246.824C219.204 246.248 219.516 245.564 219.684 244.772V241.856C219.492 241.136 219.156 240.512 218.676 239.984C218.196 239.432 217.62 239.012 216.948 238.724C216.276 238.412 215.532 238.256 214.716 238.256C213.828 238.256 213.012 238.472 212.268 238.904C211.524 239.336 210.924 239.936 210.468 240.704C210.036 241.472 209.82 242.372 209.82 243.404C209.82 244.364 210.048 245.24 210.504 246.032C210.96 246.824 211.572 247.448 212.34 247.904C213.108 248.36 213.936 248.588 214.824 248.588ZM210.54 231.56C210.54 231.032 210.732 230.588 211.116 230.228C211.5 229.844 211.932 229.652 212.412 229.652C212.868 229.652 213.288 229.844 213.672 230.228C214.08 230.588 214.284 231.044 214.284 231.596C214.284 232.148 214.08 232.604 213.672 232.964C213.288 233.3 212.868 233.468 212.412 233.468C211.932 233.468 211.5 233.288 211.116 232.928C210.732 232.568 210.54 232.112 210.54 231.56ZM217.272 231.56C217.272 231.032 217.464 230.588 217.848 230.228C218.256 229.844 218.7 229.652 219.18 229.652C219.612 229.652 220.02 229.844 220.404 230.228C220.812 230.588 221.016 231.044 221.016 231.596C221.016 232.148 220.812 232.604 220.404 232.964C220.02 233.3 219.612 233.468 219.18 233.468C218.7 233.468 218.256 233.288 217.848 232.928C217.464 232.568 217.272 232.112 217.272 231.56ZM235.018 251.36C233.626 251.36 232.354 251.06 231.202 250.46C230.074 249.86 229.174 248.984 228.502 247.832C227.854 246.656 227.53 245.228 227.53 243.548C227.53 241.892 227.878 240.464 228.574 239.264C229.27 238.04 230.194 237.104 231.346 236.456C232.522 235.808 233.806 235.484 235.198 235.484C236.59 235.484 237.766 235.808 238.726 236.456C239.686 237.08 240.418 237.824 240.922 238.688L240.706 239.264L241.03 236.096H244.126V251H240.778V247.112L241.138 247.976C241.042 248.216 240.826 248.528 240.49 248.912C240.178 249.272 239.746 249.644 239.194 250.028C238.666 250.412 238.054 250.736 237.358 251C236.662 251.24 235.882 251.36 235.018 251.36ZM235.918 248.588C236.758 248.588 237.514 248.432 238.186 248.12C238.858 247.808 239.41 247.376 239.842 246.824C240.298 246.248 240.61 245.564 240.778 244.772V241.856C240.586 241.136 240.25 240.512 239.77 239.984C239.29 239.432 238.714 239.012 238.042 238.724C237.37 238.412 236.626 238.256 235.81 238.256C234.922 238.256 234.106 238.472 233.362 238.904C232.618 239.336 232.018 239.936 231.562 240.704C231.13 241.472 230.914 242.372 230.914 243.404C230.914 244.364 231.142 245.24 231.598 246.032C232.054 246.824 232.666 247.448 233.434 247.904C234.202 248.36 235.03 248.588 235.918 248.588ZM231.634 231.56C231.634 231.032 231.826 230.588 232.21 230.228C232.594 229.844 233.026 229.652 233.506 229.652C233.962 229.652 234.382 229.844 234.766 230.228C235.174 230.588 235.378 231.044 235.378 231.596C235.378 232.148 235.174 232.604 234.766 232.964C234.382 233.3 233.962 233.468 233.506 233.468C233.026 233.468 232.594 233.288 232.21 232.928C231.826 232.568 231.634 232.112 231.634 231.56ZM238.366 231.56C238.366 231.032 238.558 230.588 238.942 230.228C239.35 229.844 239.794 229.652 240.274 229.652C240.706 229.652 241.114 229.844 241.498 230.228C241.906 230.588 242.11 231.044 242.11 231.596C242.11 232.148 241.906 232.604 241.498 232.964C241.114 233.3 240.706 233.468 240.274 233.468C239.794 233.468 239.35 233.288 238.942 232.928C238.558 232.568 238.366 232.112 238.366 231.56ZM262.031 241.928H273.011V244.88H262.031V241.928ZM298.141 251.36C296.437 251.36 294.973 251.024 293.749 250.352C292.525 249.656 291.577 248.72 290.905 247.544C290.257 246.344 289.933 244.976 289.933 243.44C289.933 241.976 290.305 240.644 291.049 239.444C291.793 238.244 292.789 237.284 294.037 236.564C295.285 235.844 296.677 235.484 298.213 235.484C300.181 235.484 301.813 236.06 303.109 237.212C304.405 238.364 305.281 239.948 305.737 241.964L293.461 246.284L292.669 244.304L302.749 240.632L302.029 241.1C301.741 240.308 301.261 239.624 300.589 239.048C299.917 238.448 299.041 238.148 297.961 238.148C297.049 238.148 296.233 238.376 295.513 238.832C294.793 239.264 294.229 239.864 293.821 240.632C293.413 241.4 293.209 242.276 293.209 243.26C293.209 244.292 293.425 245.204 293.857 245.996C294.289 246.764 294.877 247.376 295.621 247.832C296.389 248.264 297.253 248.48 298.213 248.48C298.861 248.48 299.485 248.36 300.085 248.12C300.709 247.88 301.285 247.568 301.813 247.184L303.361 249.668C302.617 250.172 301.777 250.58 300.841 250.892C299.929 251.204 299.029 251.36 298.141 251.36ZM311.372 229.544H314.72V236.168H318.824V238.796H314.72V251H311.372V238.796H308.636V236.168H311.372V229.544ZM327.585 251.576C326.241 251.576 325.125 251.168 324.237 250.352C323.373 249.512 322.917 248.432 322.869 247.112V236.096H326.217V245.924C326.265 246.74 326.493 247.4 326.901 247.904C327.333 248.408 328.005 248.672 328.917 248.696C329.757 248.696 330.501 248.456 331.149 247.976C331.821 247.472 332.361 246.8 332.769 245.96C333.177 245.096 333.381 244.124 333.381 243.044V236.096H336.729V251H333.669L333.381 247.328L333.561 247.976C333.273 248.672 332.829 249.296 332.229 249.848C331.653 250.376 330.969 250.796 330.177 251.108C329.385 251.42 328.521 251.576 327.585 251.576ZM346.697 251.288C345.641 251.288 344.609 251.108 343.601 250.748C342.617 250.364 341.801 249.8 341.153 249.056L342.557 247.112C343.181 247.712 343.817 248.168 344.465 248.48C345.137 248.768 345.797 248.912 346.445 248.912C346.925 248.912 347.369 248.852 347.777 248.732C348.185 248.612 348.509 248.42 348.749 248.156C349.013 247.868 349.145 247.484 349.145 247.004C349.145 246.476 348.965 246.056 348.605 245.744C348.269 245.432 347.825 245.18 347.273 244.988C346.745 244.796 346.181 244.616 345.581 244.448C344.357 244.04 343.421 243.476 342.773 242.756C342.125 242.036 341.801 241.16 341.801 240.128C341.801 239.336 341.993 238.604 342.377 237.932C342.785 237.236 343.373 236.672 344.141 236.24C344.933 235.808 345.905 235.592 347.057 235.592C348.089 235.592 349.013 235.724 349.829 235.988C350.645 236.228 351.413 236.636 352.133 237.212L350.801 239.3C350.369 238.844 349.853 238.508 349.253 238.292C348.653 238.076 348.113 237.956 347.633 237.932C347.225 237.908 346.829 237.968 346.445 238.112C346.085 238.256 345.785 238.46 345.545 238.724C345.305 238.988 345.185 239.3 345.185 239.66C345.185 240.164 345.353 240.572 345.689 240.884C346.025 241.196 346.457 241.448 346.985 241.64C347.537 241.808 348.077 241.988 348.605 242.18C349.349 242.396 350.009 242.684 350.585 243.044C351.161 243.404 351.617 243.848 351.953 244.376C352.313 244.904 352.493 245.564 352.493 246.356C352.493 247.244 352.277 248.072 351.845 248.84C351.437 249.584 350.801 250.184 349.937 250.64C349.097 251.072 348.017 251.288 346.697 251.288ZM357.182 236.096H360.53V251H357.182V236.096ZM356.93 230.696C356.93 230.168 357.134 229.724 357.542 229.364C357.974 229.004 358.442 228.824 358.946 228.824C359.45 228.824 359.894 229.004 360.278 229.364C360.686 229.724 360.89 230.168 360.89 230.696C360.89 231.248 360.686 231.704 360.278 232.064C359.894 232.4 359.45 232.568 358.946 232.568C358.442 232.568 357.974 232.388 357.542 232.028C357.134 231.668 356.93 231.224 356.93 230.696ZM372.37 251.432L364.09 236.096H368.05L373.666 247.94L371.614 247.868L376.762 236.096H380.506L372.55 251.432H372.37ZM388.827 251.576C387.483 251.576 386.367 251.168 385.479 250.352C384.615 249.512 384.159 248.432 384.111 247.112V236.096H387.459V245.924C387.507 246.74 387.735 247.4 388.143 247.904C388.575 248.408 389.247 248.672 390.159 248.696C390.999 248.696 391.743 248.456 392.391 247.976C393.063 247.472 393.603 246.8 394.011 245.96C394.419 245.096 394.623 244.124 394.623 243.044V236.096H397.971V251H394.911L394.623 247.328L394.803 247.976C394.515 248.672 394.071 249.296 393.471 249.848C392.895 250.376 392.211 250.796 391.419 251.108C390.627 251.42 389.763 251.576 388.827 251.576ZM403.764 223.136H407.112V251H403.764V223.136ZM414.344 229.544H417.692V236.168H421.796V238.796H417.692V251H414.344V238.796H411.608V236.168H414.344V229.544ZM432.034 251.36C430.642 251.36 429.37 251.06 428.218 250.46C427.09 249.86 426.19 248.984 425.518 247.832C424.87 246.656 424.546 245.228 424.546 243.548C424.546 241.892 424.894 240.464 425.59 239.264C426.286 238.04 427.21 237.104 428.362 236.456C429.538 235.808 430.822 235.484 432.214 235.484C433.606 235.484 434.782 235.808 435.742 236.456C436.702 237.08 437.434 237.824 437.938 238.688L437.722 239.264L438.046 236.096H441.142V251H437.794V247.112L438.154 247.976C438.058 248.216 437.842 248.528 437.506 248.912C437.194 249.272 436.762 249.644 436.21 250.028C435.682 250.412 435.07 250.736 434.374 251C433.678 251.24 432.898 251.36 432.034 251.36ZM432.934 248.588C433.774 248.588 434.53 248.432 435.202 248.12C435.874 247.808 436.426 247.376 436.858 246.824C437.314 246.248 437.626 245.564 437.794 244.772V241.856C437.602 241.136 437.266 240.512 436.786 239.984C436.306 239.432 435.73 239.012 435.058 238.724C434.386 238.412 433.642 238.256 432.826 238.256C431.938 238.256 431.122 238.472 430.378 238.904C429.634 239.336 429.034 239.936 428.578 240.704C428.146 241.472 427.93 242.372 427.93 243.404C427.93 244.364 428.158 245.24 428.614 246.032C429.07 246.824 429.682 247.448 430.45 247.904C431.218 248.36 432.046 248.588 432.934 248.588ZM458.326 223.136H461.674V251H458.326V223.136ZM466.171 243.404C466.171 241.916 466.519 240.572 467.215 239.372C467.935 238.172 468.919 237.224 470.167 236.528C471.415 235.832 472.831 235.484 474.415 235.484C476.047 235.484 477.475 235.832 478.699 236.528C479.923 237.224 480.871 238.172 481.543 239.372C482.215 240.572 482.551 241.916 482.551 243.404C482.551 244.892 482.215 246.248 481.543 247.472C480.871 248.672 479.911 249.62 478.663 250.316C477.439 251.012 476.011 251.36 474.379 251.36C472.795 251.36 471.379 251.036 470.131 250.388C468.907 249.716 467.935 248.792 467.215 247.616C466.519 246.416 466.171 245.012 466.171 243.404ZM469.519 243.44C469.519 244.4 469.735 245.276 470.167 246.068C470.599 246.836 471.175 247.448 471.895 247.904C472.639 248.36 473.455 248.588 474.343 248.588C475.279 248.588 476.107 248.36 476.827 247.904C477.571 247.448 478.147 246.836 478.555 246.068C478.963 245.276 479.167 244.4 479.167 243.44C479.167 242.48 478.963 241.616 478.555 240.848C478.147 240.056 477.571 239.432 476.827 238.976C476.107 238.496 475.279 238.256 474.343 238.256C473.431 238.256 472.603 238.496 471.859 238.976C471.139 239.456 470.563 240.092 470.131 240.884C469.723 241.652 469.519 242.504 469.519 243.44ZM469.087 231.56C469.087 231.032 469.279 230.588 469.663 230.228C470.047 229.844 470.479 229.652 470.959 229.652C471.415 229.652 471.835 229.844 472.219 230.228C472.627 230.588 472.831 231.044 472.831 231.596C472.831 232.148 472.627 232.604 472.219 232.964C471.835 233.3 471.415 233.468 470.959 233.468C470.479 233.468 470.047 233.288 469.663 232.928C469.279 232.568 469.087 232.112 469.087 231.56ZM475.819 231.56C475.819 231.032 476.011 230.588 476.395 230.228C476.803 229.844 477.247 229.652 477.727 229.652C478.159 229.652 478.567 229.844 478.951 230.228C479.359 230.588 479.563 231.044 479.563 231.596C479.563 232.148 479.359 232.604 478.951 232.964C478.567 233.3 478.159 233.468 477.727 233.468C477.247 233.468 476.803 233.288 476.395 232.928C476.011 232.568 475.819 232.112 475.819 231.56ZM487.887 258.164L497.715 236.096H500.811L491.199 258.164H487.887ZM491.559 251.108L484.395 236.096H488.175L494.187 249.416L491.559 251.108ZM505.856 229.544H509.204V236.168H513.308V238.796H509.204V251H505.856V238.796H503.12V236.168H505.856V229.544ZM518.614 258.164L528.442 236.096H531.538L521.926 258.164H518.614ZM522.286 251.108L515.122 236.096H518.902L524.914 249.416L522.286 251.108ZM536.403 258.164L546.231 236.096H549.327L539.715 258.164H536.403ZM540.075 251.108L532.911 236.096H536.691L542.703 249.416L540.075 251.108ZM564.322 223.136H567.67V251H564.322V223.136ZM573.463 236.096H576.811V251H573.463V236.096ZM573.211 230.696C573.211 230.168 573.415 229.724 573.823 229.364C574.255 229.004 574.723 228.824 575.227 228.824C575.731 228.824 576.175 229.004 576.559 229.364C576.967 229.724 577.171 230.168 577.171 230.696C577.171 231.248 576.967 231.704 576.559 232.064C576.175 232.4 575.731 232.568 575.227 232.568C574.723 232.568 574.255 232.388 573.823 232.028C573.415 231.668 573.211 231.224 573.211 230.696ZM586.78 251.288C585.724 251.288 584.692 251.108 583.684 250.748C582.7 250.364 581.884 249.8 581.236 249.056L582.64 247.112C583.264 247.712 583.9 248.168 584.548 248.48C585.22 248.768 585.88 248.912 586.528 248.912C587.008 248.912 587.452 248.852 587.86 248.732C588.268 248.612 588.592 248.42 588.832 248.156C589.096 247.868 589.228 247.484 589.228 247.004C589.228 246.476 589.048 246.056 588.688 245.744C588.352 245.432 587.908 245.18 587.356 244.988C586.828 244.796 586.264 244.616 585.664 244.448C584.44 244.04 583.504 243.476 582.856 242.756C582.208 242.036 581.884 241.16 581.884 240.128C581.884 239.336 582.076 238.604 582.46 237.932C582.868 237.236 583.456 236.672 584.224 236.24C585.016 235.808 585.988 235.592 587.14 235.592C588.172 235.592 589.096 235.724 589.912 235.988C590.728 236.228 591.496 236.636 592.216 237.212L590.884 239.3C590.452 238.844 589.936 238.508 589.336 238.292C588.736 238.076 588.196 237.956 587.716 237.932C587.308 237.908 586.912 237.968 586.528 238.112C586.168 238.256 585.868 238.46 585.628 238.724C585.388 238.988 585.268 239.3 585.268 239.66C585.268 240.164 585.436 240.572 585.772 240.884C586.108 241.196 586.54 241.448 587.068 241.64C587.62 241.808 588.16 241.988 588.688 242.18C589.432 242.396 590.092 242.684 590.668 243.044C591.244 243.404 591.7 243.848 592.036 244.376C592.396 244.904 592.576 245.564 592.576 246.356C592.576 247.244 592.36 248.072 591.928 248.84C591.52 249.584 590.884 250.184 590.02 250.64C589.18 251.072 588.1 251.288 586.78 251.288ZM603.456 251.36C602.064 251.36 600.792 251.06 599.64 250.46C598.512 249.86 597.612 248.984 596.94 247.832C596.292 246.656 595.968 245.228 595.968 243.548C595.968 241.892 596.316 240.464 597.012 239.264C597.708 238.04 598.632 237.104 599.784 236.456C600.96 235.808 602.244 235.484 603.636 235.484C605.028 235.484 606.204 235.808 607.164 236.456C608.124 237.08 608.856 237.824 609.36 238.688L609.144 239.264L609.468 236.096H612.564V251H609.216V247.112L609.576 247.976C609.48 248.216 609.264 248.528 608.928 248.912C608.616 249.272 608.184 249.644 607.632 250.028C607.104 250.412 606.492 250.736 605.796 251C605.1 251.24 604.32 251.36 603.456 251.36ZM604.356 248.588C605.196 248.588 605.952 248.432 606.624 248.12C607.296 247.808 607.848 247.376 608.28 246.824C608.736 246.248 609.048 245.564 609.216 244.772V241.856C609.024 241.136 608.688 240.512 608.208 239.984C607.728 239.432 607.152 239.012 606.48 238.724C605.808 238.412 605.064 238.256 604.248 238.256C603.36 238.256 602.544 238.472 601.8 238.904C601.056 239.336 600.456 239.936 600 240.704C599.568 241.472 599.352 242.372 599.352 243.404C599.352 244.364 599.58 245.24 600.036 246.032C600.492 246.824 601.104 247.448 601.872 247.904C602.64 248.36 603.468 248.588 604.356 248.588ZM600.072 231.56C600.072 231.032 600.264 230.588 600.648 230.228C601.032 229.844 601.464 229.652 601.944 229.652C602.4 229.652 602.82 229.844 603.204 230.228C603.612 230.588 603.816 231.044 603.816 231.596C603.816 232.148 603.612 232.604 603.204 232.964C602.82 233.3 602.4 233.468 601.944 233.468C601.464 233.468 601.032 233.288 600.648 232.928C600.264 232.568 600.072 232.112 600.072 231.56ZM606.804 231.56C606.804 231.032 606.996 230.588 607.38 230.228C607.788 229.844 608.232 229.652 608.712 229.652C609.144 229.652 609.552 229.844 609.936 230.228C610.344 230.588 610.548 231.044 610.548 231.596C610.548 232.148 610.344 232.604 609.936 232.964C609.552 233.3 609.144 233.468 608.712 233.468C608.232 233.468 607.788 233.288 607.38 232.928C606.996 232.568 606.804 232.112 606.804 231.56ZM624.549 251.36C623.157 251.36 621.885 251.06 620.733 250.46C619.605 249.86 618.705 248.984 618.033 247.832C617.385 246.656 617.061 245.228 617.061 243.548C617.061 241.892 617.409 240.464 618.105 239.264C618.801 238.04 619.725 237.104 620.877 236.456C622.053 235.808 623.337 235.484 624.729 235.484C626.121 235.484 627.297 235.808 628.257 236.456C629.217 237.08 629.949 237.824 630.453 238.688L630.237 239.264L630.561 236.096H633.657V251H630.309V247.112L630.669 247.976C630.573 248.216 630.357 248.528 630.021 248.912C629.709 249.272 629.277 249.644 628.725 250.028C628.197 250.412 627.585 250.736 626.889 251C626.193 251.24 625.413 251.36 624.549 251.36ZM625.449 248.588C626.289 248.588 627.045 248.432 627.717 248.12C628.389 247.808 628.941 247.376 629.373 246.824C629.829 246.248 630.141 245.564 630.309 244.772V241.856C630.117 241.136 629.781 240.512 629.301 239.984C628.821 239.432 628.245 239.012 627.573 238.724C626.901 238.412 626.157 238.256 625.341 238.256C624.453 238.256 623.637 238.472 622.893 238.904C622.149 239.336 621.549 239.936 621.093 240.704C620.661 241.472 620.445 242.372 620.445 243.404C620.445 244.364 620.673 245.24 621.129 246.032C621.585 246.824 622.197 247.448 622.965 247.904C623.733 248.36 624.561 248.588 625.449 248.588ZM621.165 231.56C621.165 231.032 621.357 230.588 621.741 230.228C622.125 229.844 622.557 229.652 623.037 229.652C623.493 229.652 623.913 229.844 624.297 230.228C624.705 230.588 624.909 231.044 624.909 231.596C624.909 232.148 624.705 232.604 624.297 232.964C623.913 233.3 623.493 233.468 623.037 233.468C622.557 233.468 622.125 233.288 621.741 232.928C621.357 232.568 621.165 232.112 621.165 231.56ZM627.897 231.56C627.897 231.032 628.089 230.588 628.473 230.228C628.881 229.844 629.325 229.652 629.805 229.652C630.237 229.652 630.645 229.844 631.029 230.228C631.437 230.588 631.641 231.044 631.641 231.596C631.641 232.148 631.437 232.604 631.029 232.964C630.645 233.3 630.237 233.468 629.805 233.468C629.325 233.468 628.881 233.288 628.473 232.928C628.089 232.568 627.897 232.112 627.897 231.56ZM655.018 251.288C653.962 251.288 652.93 251.108 651.922 250.748C650.938 250.364 650.122 249.8 649.474 249.056L650.878 247.112C651.502 247.712 652.138 248.168 652.786 248.48C653.458 248.768 654.118 248.912 654.766 248.912C655.246 248.912 655.69 248.852 656.098 248.732C656.506 248.612 656.83 248.42 657.07 248.156C657.334 247.868 657.466 247.484 657.466 247.004C657.466 246.476 657.286 246.056 656.926 245.744C656.59 245.432 656.146 245.18 655.594 244.988C655.066 244.796 654.502 244.616 653.902 244.448C652.678 244.04 651.742 243.476 651.094 242.756C650.446 242.036 650.122 241.16 650.122 240.128C650.122 239.336 650.314 238.604 650.698 237.932C651.106 237.236 651.694 236.672 652.462 236.24C653.254 235.808 654.226 235.592 655.378 235.592C656.41 235.592 657.334 235.724 658.15 235.988C658.966 236.228 659.734 236.636 660.454 237.212L659.122 239.3C658.69 238.844 658.174 238.508 657.574 238.292C656.974 238.076 656.434 237.956 655.954 237.932C655.546 237.908 655.15 237.968 654.766 238.112C654.406 238.256 654.106 238.46 653.866 238.724C653.626 238.988 653.506 239.3 653.506 239.66C653.506 240.164 653.674 240.572 654.01 240.884C654.346 241.196 654.778 241.448 655.306 241.64C655.858 241.808 656.398 241.988 656.926 242.18C657.67 242.396 658.33 242.684 658.906 243.044C659.482 243.404 659.938 243.848 660.274 244.376C660.634 244.904 660.814 245.564 660.814 246.356C660.814 247.244 660.598 248.072 660.166 248.84C659.758 249.584 659.122 250.184 658.258 250.64C657.418 251.072 656.338 251.288 655.018 251.288ZM672.414 251.36C670.71 251.36 669.246 251.024 668.022 250.352C666.798 249.656 665.85 248.72 665.178 247.544C664.53 246.344 664.206 244.976 664.206 243.44C664.206 241.976 664.578 240.644 665.322 239.444C666.066 238.244 667.062 237.284 668.31 236.564C669.558 235.844 670.95 235.484 672.486 235.484C674.454 235.484 676.086 236.06 677.382 237.212C678.678 238.364 679.554 239.948 680.01 241.964L667.734 246.284L666.942 244.304L677.022 240.632L676.302 241.1C676.014 240.308 675.534 239.624 674.862 239.048C674.19 238.448 673.314 238.148 672.234 238.148C671.322 238.148 670.506 238.376 669.786 238.832C669.066 239.264 668.502 239.864 668.094 240.632C667.686 241.4 667.482 242.276 667.482 243.26C667.482 244.292 667.698 245.204 668.13 245.996C668.562 246.764 669.15 247.376 669.894 247.832C670.662 248.264 671.526 248.48 672.486 248.48C673.134 248.48 673.758 248.36 674.358 248.12C674.982 247.88 675.558 247.568 676.086 247.184L677.634 249.668C676.89 250.172 676.05 250.58 675.114 250.892C674.202 251.204 673.302 251.36 672.414 251.36ZM684.205 236.096H687.553V251H684.205V236.096ZM683.953 230.696C683.953 230.168 684.157 229.724 684.565 229.364C684.997 229.004 685.465 228.824 685.969 228.824C686.473 228.824 686.917 229.004 687.301 229.364C687.709 229.724 687.913 230.168 687.913 230.696C687.913 231.248 687.709 231.704 687.301 232.064C686.917 232.4 686.473 232.568 685.969 232.568C685.465 232.568 684.997 232.388 684.565 232.028C684.157 231.668 683.953 231.224 683.953 230.696ZM693.346 251V223.136H696.694V251H693.346ZM700.294 241.1L707.134 251H703.21L698.062 242.972L700.294 241.1ZM695.65 246.248L695.326 243.044L704.362 235.772L706.414 237.536L695.65 246.248ZM711.275 251V223.136H714.623V251H711.275ZM718.223 241.1L725.063 251H721.139L715.991 242.972L718.223 241.1ZM713.579 246.248L713.255 243.044L722.291 235.772L724.343 237.536L713.579 246.248ZM735.151 251.36C733.759 251.36 732.487 251.06 731.335 250.46C730.207 249.86 729.307 248.984 728.635 247.832C727.987 246.656 727.663 245.228 727.663 243.548C727.663 241.892 728.011 240.464 728.707 239.264C729.403 238.04 730.327 237.104 731.479 236.456C732.655 235.808 733.939 235.484 735.331 235.484C736.723 235.484 737.899 235.808 738.859 236.456C739.819 237.08 740.551 237.824 741.055 238.688L740.839 239.264L741.163 236.096H744.259V251H740.911V247.112L741.271 247.976C741.175 248.216 740.959 248.528 740.623 248.912C740.311 249.272 739.879 249.644 739.327 250.028C738.799 250.412 738.187 250.736 737.491 251C736.795 251.24 736.015 251.36 735.151 251.36ZM736.051 248.588C736.891 248.588 737.647 248.432 738.319 248.12C738.991 247.808 739.543 247.376 739.975 246.824C740.431 246.248 740.743 245.564 740.911 244.772V241.856C740.719 241.136 740.383 240.512 739.903 239.984C739.423 239.432 738.847 239.012 738.175 238.724C737.503 238.412 736.759 238.256 735.943 238.256C735.055 238.256 734.239 238.472 733.495 238.904C732.751 239.336 732.151 239.936 731.695 240.704C731.263 241.472 731.047 242.372 731.047 243.404C731.047 244.364 731.275 245.24 731.731 246.032C732.187 246.824 732.799 247.448 733.567 247.904C734.335 248.36 735.163 248.588 736.051 248.588ZM750.053 236.096H753.401V251H750.053V236.096ZM749.801 230.696C749.801 230.168 750.005 229.724 750.413 229.364C750.845 229.004 751.313 228.824 751.817 228.824C752.321 228.824 752.765 229.004 753.149 229.364C753.557 229.724 753.761 230.168 753.761 230.696C753.761 231.248 753.557 231.704 753.149 232.064C752.765 232.4 752.321 232.568 751.817 232.568C751.313 232.568 750.845 232.388 750.413 232.028C750.005 231.668 749.801 231.224 749.801 230.696ZM759.193 223.136H762.541V251H759.193V223.136ZM773.05 251.576C771.706 251.576 770.59 251.168 769.702 250.352C768.838 249.512 768.382 248.432 768.334 247.112V236.096H771.682V245.924C771.73 246.74 771.958 247.4 772.366 247.904C772.798 248.408 773.47 248.672 774.382 248.696C775.222 248.696 775.966 248.456 776.614 247.976C777.286 247.472 777.826 246.8 778.234 245.96C778.642 245.096 778.846 244.124 778.846 243.044V236.096H782.194V251H779.134L778.846 247.328L779.026 247.976C778.738 248.672 778.294 249.296 777.694 249.848C777.118 250.376 776.434 250.796 775.642 251.108C774.85 251.42 773.986 251.576 773.05 251.576ZM788.166 258.164L786.186 256.112C786.858 255.536 787.386 254.816 787.77 253.952C788.154 253.112 788.346 252.116 788.346 250.964V236.096H791.73V251.108C791.73 252.788 791.442 254.204 790.866 255.356C790.314 256.532 789.414 257.468 788.166 258.164ZM788.058 230.696C788.058 230.168 788.262 229.724 788.67 229.364C789.102 229.004 789.57 228.824 790.074 228.824C790.578 228.824 791.022 229.004 791.406 229.364C791.814 229.724 792.018 230.168 792.018 230.696C792.018 231.248 791.814 231.704 791.406 232.064C791.022 232.4 790.578 232.568 790.074 232.568C789.57 232.568 789.102 232.388 788.67 232.028C788.262 231.668 788.058 231.224 788.058 230.696ZM803.495 251.36C802.103 251.36 800.831 251.06 799.679 250.46C798.551 249.86 797.651 248.984 796.979 247.832C796.331 246.656 796.007 245.228 796.007 243.548C796.007 241.892 796.355 240.464 797.051 239.264C797.747 238.04 798.671 237.104 799.823 236.456C800.999 235.808 802.283 235.484 803.675 235.484C805.067 235.484 806.243 235.808 807.203 236.456C808.163 237.08 808.895 237.824 809.399 238.688L809.183 239.264L809.507 236.096H812.603V251H809.255V247.112L809.615 247.976C809.519 248.216 809.303 248.528 808.967 248.912C808.655 249.272 808.223 249.644 807.671 250.028C807.143 250.412 806.531 250.736 805.835 251C805.139 251.24 804.359 251.36 803.495 251.36ZM804.395 248.588C805.235 248.588 805.991 248.432 806.663 248.12C807.335 247.808 807.887 247.376 808.319 246.824C808.775 246.248 809.087 245.564 809.255 244.772V241.856C809.063 241.136 808.727 240.512 808.247 239.984C807.767 239.432 807.191 239.012 806.519 238.724C805.847 238.412 805.103 238.256 804.287 238.256C803.399 238.256 802.583 238.472 801.839 238.904C801.095 239.336 800.495 239.936 800.039 240.704C799.607 241.472 799.391 242.372 799.391 243.404C799.391 244.364 799.619 245.24 800.075 246.032C800.531 246.824 801.143 247.448 801.911 247.904C802.679 248.36 803.507 248.588 804.395 248.588ZM817.532 223.676H820.556V244.268H817.532V223.676ZM819.152 250.856C818.528 250.856 818.012 250.676 817.604 250.316C817.196 249.956 816.992 249.5 816.992 248.948C816.992 248.396 817.196 247.94 817.604 247.58C818.012 247.196 818.528 247.004 819.152 247.004C819.752 247.004 820.244 247.196 820.628 247.58C821.036 247.94 821.24 248.396 821.24 248.948C821.24 249.5 821.036 249.956 820.628 250.316C820.244 250.676 819.752 250.856 819.152 250.856Z" fill="#494949"/>
</svg>
